<?xml version="1.0" encoding="UTF-8" standalone="no"?><!DOCTYPE svg PUBLIC "-//W3C//DTD SVG 1.1//EN" "http://www.w3.org/Graphics/SVG/1.1/DTD/svg11.dtd"><svg width="100%" height="100%" viewBox="0 0 82 63" version="1.1" xmlns="http://www.w3.org/2000/svg" xmlns:xlink="http://www.w3.org/1999/xlink" xml:space="preserve" xmlns:serif="http://www.serif.com/" style="fill-rule:evenodd;clip-rule:evenodd;stroke-linecap:round;stroke-linejoin:round;stroke-miterlimit:1.41421;"><g><g><rect x="22.749" y="13.155" width="36" height="36" style="fill:#585858;stroke:#150000;stroke-width:0.6px;"/><rect x="29.949" y="23.955" width="28.8" height="7.2" style="fill:#fbee63;stroke:#000;stroke-width:0.6px;"/><path d="M21.317,23.955l2.863,0" style="fill:none;stroke:#000;stroke-width:0.6px;"/><path d="M21.317,13.155l2.863,0" style="fill:none;stroke:#000;stroke-width:0.6px;"/><path d="M21.317,31.187l2.863,0" style="fill:none;stroke:#000;stroke-width:0.6px;"/><path d="M21.317,49.155l2.863,0" style="fill:none;stroke:#000;stroke-width:0.6px;"/><path d="M29.949,50.587l0,-2.863" style="fill:none;stroke:#000;stroke-width:0.6px;"/><path d="M58.749,50.587l0,-2.863" style="fill:none;stroke:#000;stroke-width:0.6px;"/><path d="M22.749,50.587l0,-2.863" style="fill:none;stroke:#000;stroke-width:0.6px;"/><path d="M23.649,5.387l-0.9,-1.8l-0.9,1.8c0.45,-0.45 1.35,-0.45 1.8,0Z"/><path d="M66.549,48.286l1.8,0.901l-1.801,0.899c0.45,-0.45 0.451,-1.35 0.001,-1.8Z"/><path d="M22.749,5.027l0,44.127c0,0 36.409,0.026 44.16,0.032" style="fill:none;stroke:#000;stroke-width:0.6px;"/><text x="20.483px" y="52.353px" style="font-family:'Rockwell-Bold', 'Rockwell', serif;font-weight:700;font-size:2.4px;">0             0.2                                       1.0</text><g transform="matrix(0.12,0,0,0.12,-1.03369,-12.4488)"><text x="151.619px" y="207.958px" style="font-family:'Rockwell-Bold', 'Rockwell', serif;font-weight:700;font-size:20px;">1.0</text><text x="151.619px" y="301.57px" style="font-family:'Rockwell-Bold', 'Rockwell', serif;font-weight:700;font-size:20px;">0.7</text><text x="151.619px" y="359.175px" style="font-family:'Rockwell-Bold', 'Rockwell', serif;font-weight:700;font-size:20px;">0.5</text></g><path d="M29.949,13.155l0,36.032l0,-18.032l-7.2,0.032" style="fill:none;stroke:#000;stroke-width:0.12px;stroke-dasharray:0.6,0.01,0.12,0.6;"/><path d="M22.749,23.955l7.2,0" style="fill:none;stroke:#000;stroke-width:0.12px;stroke-dasharray:0.6,0.01,0.12,0.6;"/></g><text x="33.642px" y="28.601px" style="font-family:'Rockwell-Bold', 'Rockwell', serif;font-weight:700;font-size:3.12px;">O<tspan x="36.427px " y="28.601px ">B</tspan>ST<tspan x="42.585px 44.812px " y="28.601px 28.601px ">AC</tspan>LE</text><text x="35.041px" y="19.43px" style="font-family:'Rockwell-Bold', 'Rockwell', serif;font-weight:700;font-size:3.12px;fill:#fff;">DOMAIN</text><text x="34.77px" y="57.433px" style="font-family:'Rockwell-Bold', 'Rockwell', serif;font-weight:700;font-size:3.12px;stroke:#000;stroke-width:0.12px;stroke-linecap:butt;">BOTT<tspan x="44.413px " y="57.433px ">O</tspan>M</text><text x="6.507px" y="28.601px" style="font-family:'Rockwell-Bold', 'Rockwell', serif;font-weight:700;font-size:3.12px;stroke:#000;stroke-width:0.12px;stroke-linecap:butt;">LEFT</text><text x="64.677px" y="28.601px" style="font-family:'Rockwell-Bold', 'Rockwell', serif;font-weight:700;font-size:3.12px;stroke:#000;stroke-width:0.12px;stroke-linecap:butt;">RIG<tspan x="71.229px " y="28.601px ">H</tspan>T</text><text x="39.126px" y="7.669px" style="font-family:'Rockwell-Bold', 'Rockwell', serif;font-weight:700;font-size:3.12px;stroke:#000;stroke-width:0.12px;stroke-linecap:butt;">TO<tspan x="44.127px " y="7.669px ">P</tspan></text><path d="M20.943,18.01l1.627,1.185l-1.923,0.591c0.518,-0.37 0.666,-1.258 0.296,-1.776Z"/><path d="M5.479,26.305c0,0 -12.83,-11.95 15.671,-7.348" style="fill:none;stroke:#000;stroke-width:0.6px;"/><path d="M54.484,11.697l-1.387,1.458l-0.334,-1.984c0.298,0.562 1.159,0.825 1.721,0.526Z"/><path d="M45.987,4.078c0,0 11.618,-6.624 7.531,7.7" style="fill:none;stroke:#000;stroke-width:0.6px;"/><path d="M60.376,37.647l-1.627,-1.184l1.923,-0.591c-0.518,0.369 -0.666,1.257 -0.296,1.775Z"/><path d="M75.841,29.352c0,0 12.83,11.95 -15.672,7.348" style="fill:none;stroke:#000;stroke-width:0.6px;"/><path d="M25.694,50.703l1.387,-1.458l0.334,1.984c-0.299,-0.562 -1.159,-0.825 -1.721,-0.526Z"/><path d="M34.191,58.322c0,0 -11.618,6.624 -7.531,-7.7" style="fill:none;stroke:#000;stroke-width:0.6px;"/></g></svg>